<?xml version="1.0" encoding="utf-8"?>
<svg width="800px" height="800px" viewBox="0 0 24 24" fill="none" xmlns="http://www.w3.org/2000/svg">
  <path d="M 7.417 8.663 L 5.377 8.663 C 4.108 8.663 3.474 8.663 2.989 8.906 C 2.563 9.121 2.216 9.463 1.999 9.883 C 1.752 10.362 1.752 10.988 1.752 12.24 L 1.752 18.499 C 1.752 19.751 1.752 20.377 1.999 20.855 C 2.216 21.276 2.563 21.618 2.989 21.832 C 3.474 22.076 4.108 22.076 5.377 22.076 L 18.504 22.076 C 19.773 22.076 20.407 22.076 20.892 21.832 C 21.318 21.618 21.665 21.276 21.882 20.855 C 22.129 20.377 22.129 19.751 22.129 18.499 L 22.129 12.016 M 5.151 15.369 L 5.162 15.369 M 9.682 15.369 L 9.694 15.369 M 11.403 13.016 L 12.893 12.725 C 13.696 12.569 14.098 12.49 14.473 12.346 C 14.805 12.218 15.122 12.051 15.415 11.85 C 15.745 11.623 16.034 11.337 16.614 10.766 L 22.446 5.011 C 23.225 4.243 23.225 2.998 22.446 2.229 C 21.668 1.461 20.405 1.461 19.627 2.229 L 13.694 8.082 C 13.152 8.618 12.88 8.886 12.661 9.189 C 12.466 9.459 12.303 9.749 12.173 10.054 C 12.027 10.398 11.939 10.766 11.763 11.504 L 11.403 13.016 Z" stroke="#1C274C" stroke-width="1.5" stroke-linecap="round" stroke-linejoin="round" style=""/>
</svg>